<svg id="Capa_1" enable-background="new 0 0 512 512" height="512" viewBox="0 0 512 512" width="512" xmlns="http://www.w3.org/2000/svg"><g><path d="m241 114.954h30v111h-30z"/><path d="m412.279 397.952c-7.577-79.559-74.769-141.998-156.279-141.998s-148.702 62.44-156.279 141.999h-99.721v30h512v-30h-99.721zm-156.279-111.998c64.954 0 118.675 49.013 126.119 111.999h-252.238c7.444-62.986 61.165-111.999 126.119-111.999z"/><path d="m63.667 457.952h384.667v30h-384.667z"/><path d="m33.794 300.29h30v69.001h-30z" transform="matrix(.353 -.936 .936 .353 -281.678 262.306)"/><path d="m155.591 174.112h30v69.001h-30z" transform="matrix(.923 -.386 .386 .923 -67.243 81.902)"/><path d="m306.908 193.612h69.001v30h-69.001z" transform="matrix(.386 -.923 .923 .386 17.296 443.196)"/><path d="m428.705 319.791h69.001v30h-69.001z" transform="matrix(.936 -.353 .353 .936 -88.342 184.993)"/><path d="m69.528 185.98h30v111h-30z" transform="matrix(.707 -.707 .707 .707 -145.995 130.498)"/><path d="m371.972 226.48h111v30h-111z" transform="matrix(.707 -.707 .707 .707 -45.548 372.997)"/><path d="m438.87 70.867v72.531h30v-72.531l20.382 20.382 21.213-21.213-45.988-45.988h-21.213l-46.305 46.303 21.213 21.213z"/></g></svg>